<?xml version="1.0" encoding="UTF-8" standalone="no"?>
<!DOCTYPE svg PUBLIC "-//W3C//DTD SVG 1.1//EN" "http://www.w3.org/Graphics/SVG/1.1/DTD/svg11.dtd">
<svg width="100%" height="100%" viewBox="0 0 675 75" version="1.1" xmlns="http://www.w3.org/2000/svg" xmlns:xlink="http://www.w3.org/1999/xlink" xml:space="preserve" xmlns:serif="http://www.serif.com/" style="fill-rule:evenodd;clip-rule:evenodd;stroke-linecap:round;stroke-linejoin:round;">
    <g transform="matrix(1,0,0,1,-232.5,-232.5)">
        <path d="M240,240L240,300L300,300L300,240M420,240L360,240L360,270L420,270L420,300L360,300M480,240L510,270L540,240L510,270L510,300M660,240L600,240L600,270L660,270L660,300L600,300M720,300L720,240L780,240L780,270L720,270L780,300M900,240L840,240L840,300L900,300" style="fill:none;fill-rule:nonzero;stroke:white;stroke-width:5.33px;"/>
    </g>
</svg>
